# xmcd
#
# Track frame offsets:
# 182
# 11955
# 23330
# 34382
# 47922
# 68112
# 81652
# 91935
# 106065
# 118885
# 131715
# 142477
# 155630
# 168085
#
# Disc length: 2423 seconds
#
#
# Revision: 0
# Processed by: cddbd v1.5.1PL0 Copyright (c) Steve Scherf et al.
# Submitted via: FreeRIP 2.80 
#
DISCID=c609750e
DTITLE=T.N.T. Tribble - Red Hot Boogie - Vol. 2
DYEAR=1990
DGENRE=Blues
TTITLE0=The Groove
TTITLE1=Good Mama
TTITLE2=Cadillac Blues
TTITLE3=Little House Party
TTITLE4=T.N.T. Stroll - Good Mama Instrumental
TTITLE5=Movin' Man
TTITLE6=Red Hot Boogie
TTITLE7=She Walked Right In
TTITLE8=Little House Party (Alternate Take)
TTITLE9=Rockin' Mama
TTITLE10=Long Gone
TTITLE11=That's Alright With Me
TTITLE12=On The Alamo
TTITLE13=Hey Everybody
EXTD=Collectables Records Corp. COL-5328
EXTT0=
EXTT1=
EXTT2=
EXTT3=
EXTT4=
EXTT5=
EXTT6=
EXTT7=
EXTT8=
EXTT9=
EXTT10=
EXTT11=
EXTT12=
EXTT13=
PLAYORDER=
